<svg xmlns="http://www.w3.org/2000/svg" width="920" height="420">
<rect width="100%" height="100%" fill="#ffffff"/>
<text x="70" y="24" font-size="18" font-family="Arial" fill="#111827">All Datasets - Fail Rate by Repeat</text>
<line x1="70" y1="365.00" x2="900" y2="365.00" stroke="#e5e7eb"/>
<text x="62" y="369.00" text-anchor="end" font-size="11" font-family="Arial" fill="#374151">0</text>
<line x1="70" y1="301.00" x2="900" y2="301.00" stroke="#e5e7eb"/>
<text x="62" y="305.00" text-anchor="end" font-size="11" font-family="Arial" fill="#374151">0</text>
<line x1="70" y1="237.00" x2="900" y2="237.00" stroke="#e5e7eb"/>
<text x="62" y="241.00" text-anchor="end" font-size="11" font-family="Arial" fill="#374151">0</text>
<line x1="70" y1="173.00" x2="900" y2="173.00" stroke="#e5e7eb"/>
<text x="62" y="177.00" text-anchor="end" font-size="11" font-family="Arial" fill="#374151">0</text>
<line x1="70" y1="109.00" x2="900" y2="109.00" stroke="#e5e7eb"/>
<text x="62" y="113.00" text-anchor="end" font-size="11" font-family="Arial" fill="#374151">0</text>
<line x1="70" y1="45.00" x2="900" y2="45.00" stroke="#e5e7eb"/>
<text x="62" y="49.00" text-anchor="end" font-size="11" font-family="Arial" fill="#374151">0</text>
<line x1="70.00" y1="45" x2="70.00" y2="365" stroke="#f3f4f6"/>
<text x="70.00" y="383" text-anchor="middle" font-size="11" font-family="Arial" fill="#374151">5000</text>
<line x1="662.86" y1="45" x2="662.86" y2="365" stroke="#f3f4f6"/>
<text x="662.86" y="383" text-anchor="middle" font-size="11" font-family="Arial" fill="#374151">10000</text>
<line x1="900.00" y1="45" x2="900.00" y2="365" stroke="#f3f4f6"/>
<text x="900.00" y="383" text-anchor="middle" font-size="11" font-family="Arial" fill="#374151">12000</text>
<line x1="70" y1="365" x2="900" y2="365" stroke="#111827"/>
<line x1="70" y1="45" x2="70" y2="365" stroke="#111827"/>
<text x="485.00" y="406" text-anchor="middle" font-size="12" font-family="Arial" fill="#111827">Total Requests</text>
<text x="16" y="205.00" transform="rotate(-90 16 205.00)" text-anchor="middle" font-size="12" font-family="Arial" fill="#111827">Fail Rate (%)</text>
<polyline fill="none" stroke="#2563eb" stroke-width="2.2" points="70.00,365.00 662.86,96.20 900.00,365.00"/>
<circle cx="70.00" cy="365.00" r="3.2" fill="#2563eb"/>
<circle cx="662.86" cy="96.20" r="3.2" fill="#2563eb"/>
<circle cx="900.00" cy="365.00" r="3.2" fill="#2563eb"/>
<polyline fill="none" stroke="#dc2626" stroke-width="2.2" points="70.00,365.00 662.86,365.00 900.00,365.00"/>
<circle cx="70.00" cy="365.00" r="3.2" fill="#dc2626"/>
<circle cx="662.86" cy="365.00" r="3.2" fill="#dc2626"/>
<circle cx="900.00" cy="365.00" r="3.2" fill="#dc2626"/>
<polyline fill="none" stroke="#16a34a" stroke-width="2.2" points="70.00,365.00 662.86,365.00 900.00,365.00"/>
<circle cx="70.00" cy="365.00" r="3.2" fill="#16a34a"/>
<circle cx="662.86" cy="365.00" r="3.2" fill="#16a34a"/>
<circle cx="900.00" cy="365.00" r="3.2" fill="#16a34a"/>
<rect x="690" y="39" width="205" height="78" fill="#ffffff" stroke="#e5e7eb"/>
<text x="698" y="53" font-size="12" font-family="Arial" fill="#111827">Legend</text>
<line x1="700" y1="65" x2="716" y2="65" stroke="#2563eb" stroke-width="3"/>
<text x="722" y="69" font-size="11" font-family="Arial" fill="#111827">mysql_r1</text>
<line x1="700" y1="83" x2="716" y2="83" stroke="#dc2626" stroke-width="3"/>
<text x="722" y="87" font-size="11" font-family="Arial" fill="#111827">mysql_r2</text>
<line x1="700" y1="101" x2="716" y2="101" stroke="#16a34a" stroke-width="3"/>
<text x="722" y="105" font-size="11" font-family="Arial" fill="#111827">mysql_r3</text>
</svg>