<svg xmlns="http://www.w3.org/2000/svg" width="920" height="420">
<rect width="100%" height="100%" fill="#ffffff"/>
<text x="70" y="24" font-size="18" font-family="Arial" fill="#111827">All Datasets - Effective RPS vs Concurrency</text>
<line x1="70" y1="365.00" x2="900" y2="365.00" stroke="#e5e7eb"/>
<text x="62" y="369.00" text-anchor="end" font-size="11" font-family="Arial" fill="#374151">0</text>
<line x1="70" y1="301.00" x2="900" y2="301.00" stroke="#e5e7eb"/>
<text x="62" y="305.00" text-anchor="end" font-size="11" font-family="Arial" fill="#374151">20</text>
<line x1="70" y1="237.00" x2="900" y2="237.00" stroke="#e5e7eb"/>
<text x="62" y="241.00" text-anchor="end" font-size="11" font-family="Arial" fill="#374151">40</text>
<line x1="70" y1="173.00" x2="900" y2="173.00" stroke="#e5e7eb"/>
<text x="62" y="177.00" text-anchor="end" font-size="11" font-family="Arial" fill="#374151">60</text>
<line x1="70" y1="109.00" x2="900" y2="109.00" stroke="#e5e7eb"/>
<text x="62" y="113.00" text-anchor="end" font-size="11" font-family="Arial" fill="#374151">80</text>
<line x1="70" y1="45.00" x2="900" y2="45.00" stroke="#e5e7eb"/>
<text x="62" y="49.00" text-anchor="end" font-size="11" font-family="Arial" fill="#374151">100</text>
<line x1="70.00" y1="45" x2="70.00" y2="365" stroke="#f3f4f6"/>
<text x="70.00" y="383" text-anchor="middle" font-size="11" font-family="Arial" fill="#374151">20</text>
<line x1="485.00" y1="45" x2="485.00" y2="365" stroke="#f3f4f6"/>
<text x="485.00" y="383" text-anchor="middle" font-size="11" font-family="Arial" fill="#374151">50</text>
<line x1="900.00" y1="45" x2="900.00" y2="365" stroke="#f3f4f6"/>
<text x="900.00" y="383" text-anchor="middle" font-size="11" font-family="Arial" fill="#374151">80</text>
<line x1="70" y1="365" x2="900" y2="365" stroke="#111827"/>
<line x1="70" y1="45" x2="70" y2="365" stroke="#111827"/>
<text x="485.00" y="406" text-anchor="middle" font-size="12" font-family="Arial" fill="#111827">Concurrency</text>
<text x="16" y="205.00" transform="rotate(-90 16 205.00)" text-anchor="middle" font-size="12" font-family="Arial" fill="#111827">Effective RPS</text>
<polyline fill="none" stroke="#2563eb" stroke-width="2.2" points="70.00,203.98 485.00,179.11 900.00,200.74"/>
<circle cx="70.00" cy="203.98" r="3.2" fill="#2563eb"/>
<circle cx="485.00" cy="179.11" r="3.2" fill="#2563eb"/>
<circle cx="900.00" cy="200.74" r="3.2" fill="#2563eb"/>
<polyline fill="none" stroke="#dc2626" stroke-width="2.2" points="70.00,203.85 485.00,172.39 900.00,193.64"/>
<circle cx="70.00" cy="203.85" r="3.2" fill="#dc2626"/>
<circle cx="485.00" cy="172.39" r="3.2" fill="#dc2626"/>
<circle cx="900.00" cy="193.64" r="3.2" fill="#dc2626"/>
<rect x="690" y="39" width="205" height="60" fill="#ffffff" stroke="#e5e7eb"/>
<text x="698" y="53" font-size="12" font-family="Arial" fill="#111827">Legend</text>
<line x1="700" y1="65" x2="716" y2="65" stroke="#2563eb" stroke-width="3"/>
<text x="722" y="69" font-size="11" font-family="Arial" fill="#111827">result_core_rerun_20260303</text>
<line x1="700" y1="83" x2="716" y2="83" stroke="#dc2626" stroke-width="3"/>
<text x="722" y="87" font-size="11" font-family="Arial" fill="#111827">result_gateway_rerun_20260303</text>
</svg>